HIERARCHY
ROOT Hips
{
	OFFSET 0.000000 0.000000 0.000000
	CHANNELS 6 Xposition Yposition Zposition Zrotation Yrotation Xrotation 
	JOINT LHipJoint
	{
		OFFSET 0.000000 0.000000 0.000000
		CHANNELS 3 Zrotation Yrotation Xrotation
		JOINT LeftUpLeg
		{
			OFFSET 1.363060 -1.794630 0.839290
			CHANNELS 3 Zrotation Yrotation Xrotation
			JOINT LeftLeg
			{
				OFFSET 2.448110 -6.726130 0.000000
				CHANNELS 3 Zrotation Yrotation Xrotation
				JOINT LeftFoot
				{
					OFFSET 2.562200 -7.039590 0.000000
					CHANNELS 3 Zrotation Yrotation Xrotation
					JOINT LeftToeBase
					{
						OFFSET 0.157640 -0.433110 2.322550
						CHANNELS 3 Zrotation Yrotation Xrotation
						End Site
						{
							OFFSET 0.000000 0.000000 0.000000
						}
					}
				}
			}
		}
	}
	JOINT RHipJoint
	{
		OFFSET 0.000000 0.000000 0.000000
		CHANNELS 3 Zrotation Yrotation Xrotation
		JOINT RightUpLeg
		{
			OFFSET -1.305520 -1.794630 0.839290
			CHANNELS 3 Zrotation Yrotation Xrotation
			JOINT RightLeg
			{
				OFFSET -2.542530 -6.985550 0.000000
				CHANNELS 3 Zrotation Yrotation Xrotation
				JOINT RightFoot
				{
					OFFSET -2.568260 -7.056230 0.000000
					CHANNELS 3 Zrotation Yrotation Xrotation
					JOINT RightToeBase
					{
						OFFSET -0.164730 -0.452590 2.363150
						CHANNELS 3 Zrotation Yrotation Xrotation
						End Site
						{
							OFFSET 0.000000 0.000000 0.000000
						}
					}
				}
			}
		}
	}
}
MOTION
Frames: 11
Frame Time: 0.008333
3.339966 15.262115 0.779597 97.360778 -82.231004 -61.288370 -10.383817 -2.101570 -2.393645 -22.127830 -4.086408 -73.851781 1.702171 6.403318 87.427287 4.878813 21.020828 -29.248711 -7.474200 0.000000 -0.670000 8.483032 0.806638 -3.630006 11.279124 -9.695245 -58.479254 1.553200 -5.865480 67.614814 -3.980661 -8.512880 -37.749694 5.250000 -0.000000 -23.679400
3.147816 15.282476 0.767873 101.494782 -82.235870 -65.118817 -10.080843 -2.071768 -2.206032 -22.537953 -4.969996 -76.235982 1.465577 6.473542 85.687583 4.861070 20.238839 -29.174179 -7.157900 -0.000000 -1.751000 8.491320 0.852330 -3.784590 11.101429 -9.750309 -57.415627 1.639910 -5.734640 66.827481 -3.940419 -8.364331 -37.622357 5.172300 0.000000 -25.199999
2.951726 15.299812 0.757850 105.849217 -82.249983 -69.162607 -9.780314 -1.994341 -1.987123 -22.825805 -5.831515 -78.488424 1.178834 6.517388 83.604012 4.814834 19.294660 -28.991761 -6.755500 -0.000000 -2.845000 8.510418 0.899227 -3.935475 10.935155 -9.792305 -56.345221 1.727639 -5.602891 66.037115 -3.880749 -8.137177 -37.444874 5.053300 -0.000000 -26.859000
2.751610 15.314157 0.749466 110.349517 -82.274094 -73.348725 -9.483891 -1.871447 -1.738114 -22.995274 -6.659577 -80.597986 0.844420 6.531916 81.188134 4.737858 18.193233 -28.691593 -6.273700 -0.000000 -4.057199 8.544406 0.946293 -4.084090 10.780286 -9.828880 -55.259208 1.817793 -5.471355 65.239143 -3.801129 -7.828874 -37.219396 4.893000 0.000000 -28.667500
2.554611 15.328533 0.732363 122.639229 -82.046120 -85.418840 -9.095506 -1.469796 -1.719134 -23.475524 -6.493543 -82.548447 0.403093 6.632962 78.450328 4.623561 16.881307 -28.459139 -5.783401 0.000000 -5.404501 8.727006 1.220933 -4.099609 10.214300 -9.066381 -53.954644 1.815074 -5.222818 64.517472 -3.696331 -7.491479 -36.882977 4.695500 0.000000 -30.692000
2.346562 15.337369 0.726927 126.797319 -82.076795 -89.276321 -8.788117 -1.285906 -1.410716 -23.429286 -7.241896 -84.326972 -0.023011 6.568883 75.421774 4.489101 15.520169 -27.976294 -5.206800 -0.000000 -7.005700 8.827166 1.253068 -4.245167 10.101369 -9.131966 -52.810642 1.918392 -5.107029 63.678952 -3.582445 -7.041461 -36.595709 4.470400 -0.000000 -32.646800
2.134606 15.343819 0.722708 130.827232 -82.127388 -93.028085 -8.496218 -1.080420 -1.078848 -23.304721 -7.936576 -85.889173 -0.495744 6.462079 72.078219 4.331760 14.074949 -27.447166 -4.625999 0.000000 -8.912900 8.941040 1.273528 -4.399938 9.996291 -9.231537 -51.606749 2.029267 -4.994732 62.805697 -3.456440 -6.539743 -36.290494 4.224400 -0.000000 -34.597800
1.918709 15.348102 0.719543 134.689215 -82.200906 -96.644309 -8.222473 -0.860981 -0.725686 -23.117991 -8.572526 -87.201574 -1.015871 6.304750 68.418086 4.157151 12.578010 -26.911639 -4.067000 -0.000000 -11.174599 9.066508 1.280562 -4.569019 9.896583 -9.376622 -50.323134 2.147829 -4.884993 61.884833 -3.322316 -6.006982 -35.968792 3.966600 -0.000000 -36.548200
1.698663 15.350363 0.717286 138.378124 -82.298794 -100.128946 -7.968494 -0.636413 -0.353386 -22.882818 -9.144447 -88.229212 -1.582801 6.086244 64.440123 3.971063 11.062177 -26.403884 -3.549000 -0.000000 -13.833200 9.201091 1.273070 -4.757044 9.798989 -9.575073 -48.939170 2.273401 -4.776148 60.904012 -3.184028 -5.465047 -35.629039 3.705900 -0.000001 -38.499000
1.474152 15.350581 0.715841 141.921168 -82.419304 -103.518431 -7.734452 -0.417864 0.035300 -22.606744 -9.644532 -88.938695 -2.192348 5.793046 60.150444 3.779358 9.562093 -25.949150 -3.084800 -0.000000 -16.834201 9.342438 1.250484 -4.967686 9.699060 -9.831737 -47.433928 2.404559 -4.666033 59.851791 -3.044845 -4.934274 -35.265547 3.449800 -0.000001 -40.469900
1.245038 15.348708 0.715206 145.370357 -82.557566 -106.879297 -7.519033 -0.220647 0.435263 -22.287916 -10.061271 -89.301769 -2.832903 5.409773 55.573290 3.589035 8.121436 -25.561115 -2.682300 -0.000000 -19.988700 9.487981 1.212665 -5.204000 9.591042 -10.149682 -45.786356 2.539639 -4.552591 58.720537 -2.907030 -4.428341 -34.875376 3.203400 -0.000000 -42.432900
